<mxfile host="65bd71144e">
    <diagram id="gW2ecRXDcFIc8OIwrk8Z" name="Page-1">
        <mxGraphModel dx="969" dy="381" grid="1" gridSize="10" guides="1" tooltips="1" connect="1" arrows="1" fold="1" page="1" pageScale="1" pageWidth="850" pageHeight="1100" math="0" shadow="0">
            <root>
                <mxCell id="0"/>
                <mxCell id="1" parent="0"/>
                <mxCell id="4" value="" style="edgeStyle=none;hachureGap=4;html=1;fontFamily=Architects Daughter;fontSource=https%3A%2F%2Ffonts.googleapis.com%2Fcss%3Ffamily%3DArchitects%2BDaughter;fontSize=16;endArrow=ERmany;endFill=0;entryX=0.608;entryY=0;entryDx=0;entryDy=0;entryPerimeter=0;endSize=17;" parent="1" source="2" target="3" edge="1">
                    <mxGeometry relative="1" as="geometry">
                        <Array as="points">
                            <mxPoint x="253" y="360"/>
                        </Array>
                    </mxGeometry>
                </mxCell>
                <mxCell id="10" style="edgeStyle=none;html=1;entryX=0.5;entryY=0;entryDx=0;entryDy=0;endArrow=ERmany;endFill=0;startSize=12;endSize=19;" parent="1" source="2" target="12" edge="1">
                    <mxGeometry relative="1" as="geometry">
                        <Array as="points">
                            <mxPoint x="400" y="360"/>
                        </Array>
                    </mxGeometry>
                </mxCell>
                <mxCell id="2" value="AnomalyMessage" style="rounded=0;whiteSpace=wrap;html=1;hachureGap=4;fontFamily=Helvetica;fontSize=16;" parent="1" vertex="1">
                    <mxGeometry x="240" y="270" width="160" height="60" as="geometry"/>
                </mxCell>
                <mxCell id="11" style="edgeStyle=none;html=1;entryX=0;entryY=0.5;entryDx=0;entryDy=0;endArrow=none;endFill=0;exitX=0.5;exitY=1;exitDx=0;exitDy=0;" parent="1" source="3" target="6" edge="1">
                    <mxGeometry relative="1" as="geometry">
                        <Array as="points">
                            <mxPoint x="240" y="530"/>
                        </Array>
                    </mxGeometry>
                </mxCell>
                <mxCell id="3" value="JpegFrame" style="rounded=0;whiteSpace=wrap;html=1;hachureGap=4;fontFamily=Helvetica;fontSize=16;" parent="1" vertex="1">
                    <mxGeometry x="180" y="397" width="120" height="60" as="geometry"/>
                </mxCell>
                <mxCell id="7" value="" style="edgeStyle=none;html=1;endArrow=ERmany;endFill=0;endSize=15;exitX=0.5;exitY=1;exitDx=0;exitDy=0;" parent="1" source="12" target="6" edge="1">
                    <mxGeometry relative="1" as="geometry"/>
                </mxCell>
                <mxCell id="6" value="TrajectoryPoint" style="rounded=0;whiteSpace=wrap;html=1;hachureGap=4;fontFamily=Helvetica;fontSize=16;" parent="1" vertex="1">
                    <mxGeometry x="325" y="500" width="150" height="60" as="geometry"/>
                </mxCell>
                <mxCell id="12" value="Trajectory" style="rounded=0;whiteSpace=wrap;html=1;hachureGap=4;fontFamily=Helvetica;fontSize=16;" vertex="1" parent="1">
                    <mxGeometry x="340" y="397" width="120" height="60" as="geometry"/>
                </mxCell>
            </root>
        </mxGraphModel>
    </diagram>
</mxfile>